<?xml version="1.0" standalone="no"?><!DOCTYPE svg PUBLIC "-//W3C//DTD SVG 1.1//EN" "http://www.w3.org/Graphics/SVG/1.1/DTD/svg11.dtd"><svg class="icon" width="48px" height="48.00px" viewBox="0 0 1024 1024" version="1.1" xmlns="http://www.w3.org/2000/svg"><path d="M844.2 762.4H182c-12.3 0-22.3-10-22.3-22.3V284c0-12.3 10-22.3 22.3-22.3h662.2c12.3 0 22.3 10 22.3 22.3v456c0.1 12.4-9.9 22.4-22.3 22.4z" fill="#1f53cc" /><path d="M194.2 314.4h637.9v384.3H194.2z" fill="#ffffff" /><path d="M939.5 762.4H83.7c-10.9 0-19.8-8.9-19.8-19.8v-19.8h896.2v19c0 11.4-9.2 20.6-20.6 20.6z" fill="#00f0d4" /><path d="M64.3 746.3c1.7 9.2 9.8 16.1 19.4 16.1h855.8c9.8 0 18-6.9 20.1-16.1H64.3z" fill="#00ccb4" /><path d="M513.1 290.8m-8 0a8 8 0 1 0 16 0 8 8 0 1 0-16 0Z" fill="#123178" /><path d="M312.6 424.1m-61 0a61 61 0 1 0 122 0 61 61 0 1 0-122 0Z" fill="#fecd44" /><path d="M304.5 459.2L274 436.7l8.9-12 20 14.7 40.5-41.5 10.7 10.4z" fill="#ffffff" /><path d="M409 397.2h311.5v15.1H409zM409 435.9h147.6V451H409z" fill="#00f0d4" /><path d="M312.6 588.4m-61 0a61 61 0 1 0 122 0 61 61 0 1 0-122 0Z" fill="#fc355d" /><path d="M409 561.5h311.5v15.1H409zM409 600.2h147.6v15.1H409z" fill="#1f53cc" /><path d="M312.6 554.1l11.2 22.6 24.9 3.6-18 17.6 4.2 24.9-22.3-11.8-22.3 11.8 4.3-24.9-18.1-17.6 25-3.6z" fill="#ffffff" /></svg>