<?xml version="1.0" standalone="no"?><!DOCTYPE svg PUBLIC "-//W3C//DTD SVG 1.1//EN" "http://www.w3.org/Graphics/SVG/1.1/DTD/svg11.dtd"><svg class="icon" width="48px" height="48.00px" viewBox="0 0 1024 1024" version="1.1" xmlns="http://www.w3.org/2000/svg"><path d="M409 220h222c23.2 0 42 18.8 42 42v432c0 23.2-18.8 42-42 42H409c-23.2 0-42-18.8-42-42V262c0-23.2 18.8-42 42-42z" fill="#ffe1e1" /><path d="M380 122c-26.5 0-48 21.5-48 48v607c0 26.5 21.5 48 48 48h286c26.5 0 48-21.5 48-48V170c0-26.5-21.5-48-48-48H380z m0-36h286c46.4 0 84 37.6 84 84v607c0 46.4-37.6 84-84 84H380c-46.4 0-84-37.6-84-84V170c0-46.4 37.6-84 84-84z m22 36v4c0 27.6 22.4 50 50 50h142c27.6 0 50-22.4 50-50v-4H402z m10 659c-5.5 0-10 4.5-10 10s4.5 10 10 10h222c5.5 0 10-4.5 10-10s-4.5-10-10-10H412z" fill="#5483e3" /></svg>