<?xml version="1.0" standalone="no"?><!DOCTYPE svg PUBLIC "-//W3C//DTD SVG 1.1//EN" "http://www.w3.org/Graphics/SVG/1.1/DTD/svg11.dtd"><svg class="icon" width="48px" height="48.00px" viewBox="0 0 1024 1024" version="1.1" xmlns="http://www.w3.org/2000/svg"><path d="M346.041379 174.029557m65.576355 0l271.889655 0q65.576355 0 65.576355 65.576354l0 568.496552q0 65.576355-65.576355 65.576355l-271.889655 0q-65.576355 0-65.576355-65.576355l0-568.496552q0-65.576355 65.576355-65.576354Z" fill="#687b8b" /><path d="M370.254187 248.181281h354.616749V802.049261H370.254187z" fill="#f0f3f5" /><path d="M648.701478 403.546798h-12.610838l-64.567487-72.638424a10.08867 10.08867 0 0 0 0-4.539901 10.593103 10.593103 0 0 0-10.593104-10.593104 10.593103 10.593103 0 0 0-11.097537 10.593104 11.097537 11.097537 0 0 0 11.097537 11.097537L623.479803 403.546798h-151.330049l59.523152-66.585222h2.522168a10.593103 10.593103 0 0 0 10.593103-11.097537 10.593103 10.593103 0 0 0-10.593103-10.593103 10.593103 10.593103 0 0 0-11.097537 10.593103 12.106404 12.106404 0 0 0 0 4.539902L458.530049 403.546798h-12.610837c-23.708374 0-22.699507 25.726108 0 25.726108h201.773399c23.708374 0 24.717241-25.726108 1.008867-25.726108zM453.990148 427.255172A11.097537 11.097537 0 1 1 453.990148 403.546798h2.522167l-7.062069 7.566502a4.539901 4.539901 0 0 0 7.062069 6.053202l7.062069-8.070935a14.628571 14.628571 0 0 1 0 4.539901 10.593103 10.593103 0 0 1-9.584236 13.619704z m186.640394 0a11.097537 11.097537 0 0 1-10.593104-11.097537 14.628571 14.628571 0 0 1 0-4.539901l7.062069 8.070936a4.539901 4.539901 0 1 0 7.062069-6.053202l-7.062069-7.566502a11.097537 11.097537 0 1 1 0 21.69064zM578.585222 436.839409h-131.15271l9.584237 57.000985a23.708374 23.708374 0 0 0 27.239409 21.186207h126.612808a23.203941 23.203941 0 0 0 26.734975-21.186207l10.08867-57.000985h-69.107389zM488.796059 498.884729h-4.035468a10.593103 10.593103 0 0 1-5.044335-7.062069c0-6.557635-4.539901-32.788177-5.044335-39.345813a6.557635 6.557635 0 0 1 7.062069-7.566502h3.026601a9.079803 9.079803 0 0 1 6.557636 9.079803l4.035468 39.345813a6.557635 6.557635 0 0 1-6.557636 5.548768z m29.257143 0a9.079803 9.079803 0 0 1-6.557635-7.566502L504.433498 453.990148a8.070936 8.070936 0 0 1 8.070935-7.566503 8.575369 8.575369 0 0 1 7.566503 7.566503v39.345813a7.062069 7.062069 0 0 1-2.017734 5.548768z m36.823645-7.566502a8.070936 8.070936 0 0 1-8.070936 7.566502 7.566502 7.566502 0 0 1-7.566502-7.566502v-39.345813a8.575369 8.575369 0 0 1 8.575369-7.566503A8.070936 8.070936 0 0 1 554.876847 453.990148v37.328079z m29.761577 0a9.079803 9.079803 0 0 1-6.557636 7.566502 7.062069 7.062069 0 0 1-7.062069-7.566502v-39.345813a8.575369 8.575369 0 0 1 7.566503-7.566503 8.070936 8.070936 0 0 1 8.070936 7.566503zM620.453202 453.990148c0 6.557635-4.539901 32.788177-5.548769 39.345813a10.593103 10.593103 0 0 1-5.044334 7.062069H605.320197a6.557635 6.557635 0 0 1-7.062069-7.566503L605.320197 453.990148a9.079803 9.079803 0 0 1 6.557636-7.062069h3.0266a7.062069 7.062069 0 0 1 5.548769 7.062069z" fill="#ff4c40" /><path d="M504.433498 549.328079h85.753694a19.672906 19.672906 0 0 1 19.168473 19.672906 19.672906 19.672906 0 0 1-19.168473 19.672907H504.433498a19.672906 19.672906 0 0 1-19.672907-19.672907 19.672906 19.672906 0 0 1 19.672907-19.672906z" fill="#d4d6d8" /><path d="M569.000985 693.091626v-87.266995h-42.876847v87.266995h-30.26601l51.452217 67.594088 51.95665-67.594088h-30.26601z" fill="#687b8b" /></svg>