<?xml version="1.0" standalone="no"?><!DOCTYPE svg PUBLIC "-//W3C//DTD SVG 1.1//EN" "http://www.w3.org/Graphics/SVG/1.1/DTD/svg11.dtd"><svg class="icon" width="48px" height="48.00px" viewBox="0 0 1024 1024" version="1.1" xmlns="http://www.w3.org/2000/svg"><path d="M370.2 893.2c-32 0-58.1-26.1-58.1-58.1V188.9c0-32 26.1-58.1 58.1-58.1h283.7c32 0 58.1 26.1 58.1 58.1v646.2c0 32-26.1 58.1-58.1 58.1H370.2z" fill="#fecd44" /><path d="M653.8 145.8c23.8 0 43.1 19.3 43.1 43.1v646.2c0 23.8-19.3 43.1-43.1 43.1H370.2c-23.8 0-43.1-19.3-43.1-43.1V188.9c0-23.8 19.3-43.1 43.1-43.1h283.6m0-30H370.2c-40.4 0-73.1 32.7-73.1 73.1v646.2c0 40.4 32.7 73.1 73.1 73.1h283.7c40.4 0 73.1-32.7 73.1-73.1V188.9c0-40.4-32.8-73.1-73.2-73.1z" fill="#1f53cc" /><path d="M459.4 168.1c-10.2 0-18.5-8.3-18.5-18.5s8.3-18.5 18.5-18.5h105.2c10.2 0 18.5 8.3 18.5 18.5s-8.3 18.5-18.5 18.5H459.4z" fill="#fecd44" /><path d="M564.6 146c1.9 0 3.5 1.6 3.5 3.5s-1.6 3.5-3.5 3.5H459.4c-1.9 0-3.5-1.6-3.5-3.5s1.6-3.5 3.5-3.5h105.2m0-30H459.4c-18.5 0-33.5 15-33.5 33.5s15 33.5 33.5 33.5h105.2c18.5 0 33.5-15 33.5-33.5s-15-33.5-33.5-33.5z" fill="#1f53cc" /><path d="M404.2 177.3h-45.4c-4.4 0-8-3.6-8-8s3.6-8 8-8h45.4c4.4 0 8 3.6 8 8 0 4.5-3.6 8-8 8zM665.2 177.3h-45.4c-4.4 0-8-3.6-8-8s3.6-8 8-8h45.4c4.4 0 8 3.6 8 8 0 4.5-3.6 8-8 8z" fill="#ffffff" /><path d="M652.6 833H371.4c-18.2 0-32.9-14.7-32.9-32.9v-26.5c0-18.2 14.7-32.9 32.9-32.9h281.1c18.2 0 32.9 14.7 32.9 32.9v26.5c0.1 18.2-14.7 32.9-32.8 32.9z" fill="#fc355d" /><path d="M545.5 860.4h-67c-2.2 0-3.9 1.8-3.9 3.9 0 2.2 1.8 3.9 3.9 3.9h67c2.2 0 3.9-1.8 3.9-3.9 0-2.1-1.7-3.9-3.9-3.9z" fill="#1f53cc" /><path d="M399.1 297.7h-30.7c-9.7 0-17.6-7.9-17.6-17.6v-30.7c0-9.7 7.9-17.6 17.6-17.6h30.7c9.7 0 17.6 7.9 17.6 17.6v30.7c0 9.7-7.9 17.6-17.6 17.6z" fill="#52d6e6" /><path d="M484.4 297.7h-30.3c-9.8 0-17.8-8-17.8-17.8v-30.3c0-9.8 8-17.8 17.8-17.8h30.3c9.8 0 17.8 8 17.8 17.8v30.3c0 9.8-8 17.8-17.8 17.8z" fill="#ec45ff" /><path d="M570.2 297.7h-30.9c-9.7 0-17.5-7.8-17.5-17.5v-30.9c0-9.7 7.8-17.5 17.5-17.5h30.9c9.7 0 17.5 7.8 17.5 17.5v30.9c0 9.7-7.8 17.5-17.5 17.5z" fill="#debaff" /><path d="M655.5 297.7H625c-9.8 0-17.7-7.9-17.7-17.7v-30.6c0-9.8 7.9-17.7 17.7-17.7h30.6c9.8 0 17.7 7.9 17.7 17.7V280c-0.1 9.8-8 17.7-17.8 17.7z" fill="#729be8" /><path d="M399.1 381.5h-30.7c-9.7 0-17.6-7.9-17.6-17.6v-30.7c0-9.7 7.9-17.6 17.6-17.6h30.7c9.7 0 17.6 7.9 17.6 17.6v30.7c0 9.7-7.9 17.6-17.6 17.6z" fill="#7673ff" /><path d="M484.4 381.5h-30.3c-9.8 0-17.8-8-17.8-17.8v-30.3c0-9.8 8-17.8 17.8-17.8h30.3c9.8 0 17.8 8 17.8 17.8v30.3c0 9.8-8 17.8-17.8 17.8z" fill="#fc355d" /><path d="M569.3 381.5h-30.9c-9.7 0-17.5-7.8-17.5-17.5v-30.9c0-9.7 7.8-17.5 17.5-17.5h30.9c9.7 0 17.5 7.8 17.5 17.5V364c0 9.7-7.8 17.5-17.5 17.5z" fill="#4845ff" /><path d="M553.9 360.3c-6.5 0-11.7-5.2-11.7-11.7 0-6.5 5.2-11.7 11.7-11.7 6.5 0 11.7 5.2 11.7 11.7 0 6.4-5.3 11.7-11.7 11.7z" fill="#ffffff" /><path d="M655.5 381.5H625c-9.8 0-17.7-7.9-17.7-17.7v-30.6c0-9.8 7.9-17.7 17.7-17.7h30.6c9.8 0 17.7 7.9 17.7 17.7v30.6c-0.1 9.8-8 17.7-17.8 17.7z" fill="#feebb4" /><path d="M399.1 465.3h-30.7c-9.7 0-17.6-7.9-17.6-17.6V417c0-9.7 7.9-17.6 17.6-17.6h30.7c9.7 0 17.6 7.9 17.6 17.6v30.7c0 9.7-7.9 17.6-17.6 17.6z" fill="#15e742" /><path d="M484.4 465.3h-30.3c-9.8 0-17.8-8-17.8-17.8v-30.3c0-9.8 8-17.8 17.8-17.8h30.3c9.8 0 17.8 8 17.8 17.8v30.3c0 9.9-8 17.8-17.8 17.8z" fill="#362eff" /><path d="M398.8 820.2h-30c-9.9 0-17.9-8-17.9-17.9v-30c0-9.9 8-17.9 17.9-17.9h30c9.9 0 17.9 8 17.9 17.9v30c0 9.9-8 17.9-17.9 17.9z" fill="#feebb4" /><path d="M484.4 820.2h-30.2c-9.9 0-17.8-8-17.8-17.8v-30.2c0-9.9 8-17.8 17.8-17.8h30.2c9.9 0 17.8 8 17.8 17.8v30.2c0 9.8-8 17.8-17.8 17.8z" fill="#ffd245" /><path d="M570.2 820.2h-30.9c-9.7 0-17.5-7.8-17.5-17.5v-30.9c0-9.7 7.8-17.5 17.5-17.5h30.9c9.7 0 17.5 7.8 17.5 17.5v30.9c0 9.7-7.8 17.5-17.5 17.5z" fill="#b4fece" /><path d="M655.6 820.2h-30.7c-9.7 0-17.6-7.9-17.6-17.6v-30.7c0-9.7 7.9-17.6 17.6-17.6h30.7c9.7 0 17.6 7.9 17.6 17.6v30.7c0 9.8-7.9 17.6-17.6 17.6z" fill="#feb4ef" /><path d="M374.7 248.8l21.7 15.9-21.6 16z" fill="#ffffff" /></svg>